<svg xmlns="http://www.w3.org/2000/svg" viewBox="0 0 1000 1000">
   <defs>
      <filter id="filter" x="-20%" y="-20%" width="140%" height="140%" filterUnits="objectBoundingBox" primitiveUnits="userSpaceOnUse" color-interpolation-filters="linearRGB">
         <feTurbulence type="fractalNoise" baseFrequency="0.0015 0.0015" numOctaves="1" seed="3" stitchTiles="stitch" result="turbulence" />
         <feMorphology operator="dilate" radius="35 35" in="turbulence" result="morphology" />
         <feColorMatrix type="matrix" values="1 0 0 0 0
               0 1 0 0 0
               0 0 1 0 0
               0 0 0 10 0" in="morphology" result="colormatrix" />
         <feColorMatrix type="saturate" values="10" in="colormatrix" result="colormatrix1" />
         <feGaussianBlur stdDeviation="10 10" x="0%" y="0%" width="100%" height="100%" in="blend" edgeMode="none" result="blur" />
         <feComposite in="blur" in2="SourceAlpha" operator="atop" result="composite" />
      </filter>
      <filter id="noise" x="-20%" y="-20%" width="140%" height="140%" filterUnits="objectBoundingBox" primitiveUnits="userSpaceOnUse">
         <feTurbulence type="fractalNoise" baseFrequency="0.05" numOctaves="1" seed="2" stitchTiles="noStitch" result="turbulence" />
         <feDisplacementMap in="SourceGraphic" in2="turbulence" scale="40" xChannelSelector="G" yChannelSelector="A" result="displacementMap" />
      </filter>
       <mask id="mask">
         <path fill="#000" d="M0,0 1000,0 1000,1000 0,1000" />
         <path fill="#fff" d="M700,200C850,350,900,425,800,450C600,500,400,500,200,450C100,425,150,350,300,200C450,50,550,50,700,200z" /> />
      </mask>
      <mask id="mask2">
         <path fill="#000" d="M0,0 1000,0 1000,1000 0,1000" />
         <path fill="#fff" d="M550,450C550,500,550,575,575,625C525,600,475,600,425,625C450,575,450,500,450,450L550,450z" />
      </mask>
      <mask id="mask3">
         <path fill="#000" d="M0,0 1000,0 1000,1000 0,1000" />
         <path fill="#fff" d="M450,450C450,600,450,750,450,850C450,900,550,900,550,850C550,750,550,609.33,550,450" />
      </mask>
   </defs>
   <g mask="url(#mask3)" filter="url(#noise)">
      <path filter="url(#filter)" d="M0,0 1000,0 1000,1000 0,1000" />
   </g>
   <g mask="url(#mask2)" filter="url(#noise)">
      <path filter="url(#filter)" d="M0,0 1000,0 1000,1000 0,1000" />
      <path opacity="0.4" fill="#fff" d="M0,0 1000,0 1000,1000 0,1000" />
   </g>
   <g mask="url(#mask)" filter="url(#noise)">
      <path filter="url(#filter)" d="M0,0 1000,0 1000,1000 0,1000" />
      <circle opacity="1" fill="#fff" cx="300" cy="200" r="100" />
      <circle opacity="1" fill="#fff" cx="600" cy="100" r="80" />
      <circle opacity="1" fill="#fff" cx="600" cy="500" r="200" />
   </g>
</svg>