<?xml version="1.0" encoding="utf-8"?>
<svg xmlns="http://www.w3.org/2000/svg" viewBox="0 0 1000 1000">
  <defs>
    <filter id="noise" x="-20%" y="-20%" width="140%" height="140%" filterUnits="objectBoundingBox" primitiveUnits="userSpaceOnUse">
      <feTurbulence type="fractalNoise" baseFrequency="0.05" numOctaves="1" seed="2" stitchTiles="noStitch" result="turbulence"/>
      <feDisplacementMap in="SourceGraphic" in2="turbulence" scale="40" xChannelSelector="G" yChannelSelector="A" result="displacementMap"/>
    </filter>
    <mask id="mask">
      <path fill="#000" d="M0,0 1000,0 1000,1000 0,1000"/>
      <path fill="#fff" d="M700,200C850,350,900,425,800,450C600,500,400,500,200,450C100,425,150,350,300,200C450,50,550,50,700,200z"/>
    </mask>
  </defs>
  <path d="M500,0C850,0,1000,150,1000,500C1000,850,850,1000,500,1000C150,1000,0,850,0,500C0,150,150,0,500,0"/>
  <path fill="#fff" d="M450,450C450,600,450,750,450,850C450,900,550,900,550,850C550,750,550,609.33,550,450"/>
  <path fill="#fff" d="M550,450C550,500,550,575,575,625C525,600,475,600,425,625C450,575,450,500,450,450L550,450z"/>
  <g mask="url(#mask)" filter="url(#noise)">
    <path fill="#fff" d="M0,0 1000,0 1000,1000 0,1000"/>
    <circle opacity="1" cx="300" cy="200" r="100" style=""/>
    <circle opacity="1" cx="600" cy="100" r="80" style=""/>
    <circle opacity="1" cx="600" cy="500" r="200" style=""/>
  </g>
</svg>